<svg width="144" height="168" viewBox="0 0 144 168" fill="none" xmlns="http://www.w3.org/2000/svg">
<path d="M134.008 79.3099C134.843 74.8368 135.11 70.8095 135.086 66.2418C134.793 56.6932 133.178 49.4546 129.451 40.6391C125.517 32.1181 121.323 26.1233 114.671 19.5202C108.743 13.9819 105.132 11.6411 98.3282 7.73215C96.7564 6.78921 94.3858 5.81463 92.6891 5.13392C83.6238 1.71863 75.1269 0.147967 65.4388 0.483434C75.4112 -0.704833 83.7205 0.357029 93.4249 3.03134C102.981 6.09534 109.811 9.84218 117.658 16.1277C125.396 22.7076 130.343 28.8279 135.228 37.7501C140.07 47.2352 142.292 55.1058 143.273 65.7202C143.933 76.4071 142.905 84.5613 139.566 94.7389C139.552 94.8397 139.367 95.3094 139.319 95.4404C135.854 104.615 131.386 111.419 124.945 118.859C117.985 126.322 111.618 131.044 102.47 135.613C92.8972 140.039 85.0227 141.991 74.4875 142.652C64.0096 142.991 56.0407 141.793 46.1591 138.299C36.81 134.689 30.1726 130.657 22.6876 124.008C15.4446 117.187 10.8048 111.008 6.41956 102.095C3.19182 94.9112 0.440356 86.618 0 78.6678C0.016 77.6267 0.0977693 75.7963 0.506836 74.8061C0.523014 74.783 5.25493 91.2914 9.76017 100.425C14.2997 108.569 18.8779 114.171 25.9058 120.352C28.3374 122.401 30.6807 124.136 33.3509 125.866C38.2608 128.954 42.563 131.015 48.0478 132.902C57.1883 135.803 64.4999 136.675 74.0681 136.06C83.5612 135.162 90.6037 133.183 99.1107 128.897C107.132 124.563 112.665 120.174 118.66 113.326C124.43 106.33 127.932 100.243 130.933 91.7183C132.477 86.9943 132.936 83.86 134.008 79.3099Z" fill="#183346"/>
<path d="M117.602 5.63537H117.997C120.785 5.97155 122.169 7.37548 122.169 9.80801V11.0139C122.169 19.5168 113.983 40.9518 97.6102 75.3188C79.22 114.293 70.0251 141.937 70.0251 158.29V160.367L70.4998 164.539L72.5761 163.669C73.0507 163.985 73.585 164.124 74.1978 164.144V165.35C73.585 166.734 72.2006 167.426 70.0251 167.426C67.257 167.426 65.8531 164.658 65.8531 159.101C65.8531 139.545 77.8362 105.633 101.782 57.3045C107.734 43.6014 112.025 33.0425 114.695 25.627C116.395 21.6722 117.661 16.9463 118.472 11.4292C118.037 8.95734 117.483 7.71164 116.791 7.71164C110.028 10.7765 100.002 21.1975 86.7146 38.9945L52.6045 86.5108C49.6978 90.1692 47.4628 92.0082 45.8815 92.0082H45.4659C43.2712 91.7708 42.164 90.7821 42.164 89.0621C42.164 86.3924 44.4973 72.0759 49.1834 46.1323C49.4801 43.3445 49.6385 41.2677 49.6385 39.8644C49.3421 39.2908 49.1834 38.8558 49.1834 38.5394C45.6639 42.2373 40.7994 50.3442 34.5707 62.802C20.7487 91.0789 11.1779 109.271 5.83919 117.378C4.33644 117.655 3.24844 117.794 2.53697 117.794C1.38995 117.398 0.816431 117.002 0.796875 116.567V115.697C0.816431 108.598 8.33074 86.5108 23.3985 49.435C22.0539 49.435 21.0651 49.1383 20.4518 48.5648C21.5988 46.291 23.537 44.6295 26.2456 43.5819H28.777L29.1921 45.2624C19.9181 67.3899 12.1469 88.9433 5.83919 109.903H6.25448C24.8618 72.2539 37.6554 48.2089 44.596 37.7876C46.6127 36.0873 48.1357 35.2372 49.1834 35.2372H50.0536C52.5647 35.2372 53.8109 37.1949 53.8109 41.0903C53.2376 47.2596 50.8644 61.7145 46.6918 84.4148C46.4545 85.9966 46.3361 87.1436 46.3361 87.8356C51.9323 81.4683 62.7684 66.7175 78.8445 43.5819C86.3784 33.5762 91.9348 26.4969 95.5138 22.3248C104.491 11.1918 111.847 5.63537 117.602 5.63537Z" fill="#183346"/>
<path d="M107.456 106.377C109.445 106.35 111.202 105.396 112.782 103.489C114.539 101.364 115.125 98.7761 114.526 95.82C114.457 95.4522 114.403 95.2072 114.43 95.1114C114.457 95.0162 114.594 94.9345 114.853 94.7572C115.329 94.4441 115.724 94.1716 116.065 93.9403C117.618 92.8916 119.756 91.6378 121.677 90.8481L121.773 90.8209C122.372 90.5618 122.862 90.3714 123.393 90.589C123.775 90.7524 124.156 90.7387 124.483 90.5346C124.797 90.3578 125.028 90.0034 125.151 89.5672C125.355 88.7775 125.136 88.0285 124.524 87.4561C123.911 86.8705 123.203 86.6795 122.304 86.8569C121.01 87.1019 115.152 90.5211 113.123 91.9784C112.755 92.2374 112.714 92.2239 112.578 92.0061C111.842 90.8753 108.382 88.3688 108.15 88.2191C107.606 87.8648 107.061 87.5242 106.53 87.1976L106.461 87.1426C105.875 86.7748 105.263 86.3933 104.677 86.026C104.268 85.7533 103.805 85.4132 103.465 84.9224C103.151 84.4728 103.151 84.3096 103.45 83.9553C103.75 83.6146 104.104 83.3147 104.485 83.0699C106.842 81.6125 109.403 80.7542 112.087 80.5496H112.195C112.304 80.5361 112.4 80.5224 112.481 80.5224C112.413 80.6042 112.359 80.6858 112.304 80.7679C111.705 81.7894 111.773 82.825 112.495 83.6554C112.863 84.0641 113.312 84.2959 113.762 84.3096H113.776C114.211 84.3231 114.62 84.1322 114.961 83.7778C115.356 83.3562 115.71 82.8385 115.982 82.2938C116.473 81.2854 116.568 80.2367 116.255 79.3236C115.928 78.3974 115.22 77.7165 114.252 77.4166C113.49 77.1713 112.672 77.1037 111.773 77.1985C108.831 77.5256 105.943 78.5067 103.219 80.141C102.428 80.6177 101.884 81.0813 101.448 81.6669C100.453 82.9604 100.344 84.6365 101.162 86.162C101.543 86.8841 102.047 87.4833 102.674 87.9601C103.491 88.6006 104.349 89.1862 105.071 89.6765C105.602 90.0171 105.221 89.7858 105.834 90.1668L105.861 90.194C106.692 90.7252 107.55 91.2834 108.395 91.8833C108.953 92.2783 109.526 92.7686 110.193 93.45C110.384 93.6404 110.506 93.7634 110.574 93.8314C110.506 93.8989 110.398 94.0082 110.207 94.1851C110.03 94.3218 109.852 94.4714 109.648 94.6488L109.607 94.676C109.348 94.9073 109.062 95.125 108.79 95.3704C107.441 96.5693 106.433 97.6724 105.63 98.8305C105.18 99.471 104.676 100.261 104.404 101.228C104.009 102.59 104.104 103.871 104.689 104.851C105.18 105.682 105.929 106.186 106.856 106.336C106.924 106.336 106.978 106.35 107.033 106.35C107.128 106.363 107.21 106.363 107.305 106.377C107.346 106.377 107.401 106.377 107.456 106.377ZM107.742 102.862H107.728C107.523 102.862 107.428 102.822 107.387 102.808C107.387 102.754 107.373 102.631 107.442 102.345C107.605 101.623 108.014 101.037 108.368 100.533C109.253 99.3073 110.343 98.2036 111.882 96.9643C111.937 96.9236 111.978 96.8964 112.018 96.8692C112.018 96.9236 112.033 96.9915 112.033 97.0868C112.06 97.2914 112.06 97.4955 112.06 97.6861V97.8633C111.841 100.329 109.622 102.903 107.742 102.862Z" fill="#183346"/>
<path fill-rule="evenodd" clip-rule="evenodd" d="M122.081 94.9532C123.614 94.9532 124.857 96.1957 124.857 97.7291C124.857 99.2629 123.614 100.506 122.081 100.506C120.547 100.506 119.305 99.2629 119.305 97.7291C119.305 96.1957 120.547 94.9532 122.081 94.9532Z" fill="#183346"/>
</svg>
